<svg version="1.1" xmlns="http://www.w3.org/2000/svg" viewBox="0 0 1065.4619140625 511.54980380179677" width="3196.3857421875" height="1534.6494114053903">
  <!-- svg-source:excalidraw -->
  
  <defs>
    <style class="style-fonts">
      @font-face {
        font-family: "Virgil";
        src: url("https://excalidraw.com/Virgil.woff2");
      }
      @font-face {
        font-family: "Cascadia";
        src: url("https://excalidraw.com/Cascadia.woff2");
      }
      @font-face {
        font-family: "Assistant";
        src: url("https://excalidraw.com/Assistant-Regular.woff2");
      }
    </style>
    
  </defs>
  <rect x="0" y="0" width="1065.4619140625" height="511.54980380179677" fill="#ffffff"></rect><g stroke-linecap="round" transform="translate(10 10.716470468463484) rotate(0 28.5 28.5)"><path d="M57 28.5 C57 30.15, 56.85 31.82, 56.57 33.45 C56.28 35.07, 55.85 36.7, 55.28 38.25 C54.72 39.8, 54.01 41.32, 53.18 42.75 C52.36 44.18, 51.39 45.56, 50.33 46.82 C49.27 48.08, 48.08 49.27, 46.82 50.33 C45.56 51.39, 44.18 52.36, 42.75 53.18 C41.32 54.01, 39.8 54.72, 38.25 55.28 C36.7 55.85, 35.07 56.28, 33.45 56.57 C31.82 56.85, 30.15 57, 28.5 57 C26.85 57, 25.18 56.85, 23.55 56.57 C21.93 56.28, 20.3 55.85, 18.75 55.28 C17.2 54.72, 15.68 54.01, 14.25 53.18 C12.82 52.36, 11.44 51.39, 10.18 50.33 C8.92 49.27, 7.73 48.08, 6.67 46.82 C5.61 45.56, 4.64 44.18, 3.82 42.75 C2.99 41.32, 2.28 39.8, 1.72 38.25 C1.15 36.7, 0.72 35.07, 0.43 33.45 C0.15 31.82, 0 30.15, 0 28.5 C0 26.85, 0.15 25.18, 0.43 23.55 C0.72 21.93, 1.15 20.3, 1.72 18.75 C2.28 17.2, 2.99 15.68, 3.82 14.25 C4.64 12.82, 5.61 11.44, 6.67 10.18 C7.73 8.92, 8.92 7.73, 10.18 6.67 C11.44 5.61, 12.82 4.64, 14.25 3.82 C15.68 2.99, 17.2 2.28, 18.75 1.72 C20.3 1.15, 21.93 0.72, 23.55 0.43 C25.18 0.15, 26.85 0, 28.5 0 C30.15 0, 31.82 0.15, 33.45 0.43 C35.07 0.72, 36.7 1.15, 38.25 1.72 C39.8 2.28, 41.32 2.99, 42.75 3.82 C44.18 4.64, 45.56 5.61, 46.82 6.67 C48.08 7.73, 49.27 8.92, 50.33 10.18 C51.39 11.44, 52.36 12.82, 53.18 14.25 C54.01 15.68, 54.72 17.2, 55.28 18.75 C55.85 20.3, 56.28 21.93, 56.57 23.55 C56.85 25.18, 56.93 27.68, 57 28.5 C57.07 29.32, 57.07 27.68, 57 28.5" stroke="#1e1e1e" stroke-width="2" fill="none"></path></g><g transform="translate(28.972456736183403 29.463927204646893) rotate(0 9.375 9.599999999999994)"><text x="9.375" y="15.45" font-family="Cascadia, Segoe UI Emoji" font-size="16px" fill="#1e1e1e" text-anchor="middle" style="white-space: pre;" direction="ltr" dominant-baseline="alphabetic">22</text></g><g stroke-linecap="round" transform="translate(10 152.0498038017968) rotate(0 28.5 28.5)"><path d="M57 28.5 C57 30.15, 56.85 31.82, 56.57 33.45 C56.28 35.07, 55.85 36.7, 55.28 38.25 C54.72 39.8, 54.01 41.32, 53.18 42.75 C52.36 44.18, 51.39 45.56, 50.33 46.82 C49.27 48.08, 48.08 49.27, 46.82 50.33 C45.56 51.39, 44.18 52.36, 42.75 53.18 C41.32 54.01, 39.8 54.72, 38.25 55.28 C36.7 55.85, 35.07 56.28, 33.45 56.57 C31.82 56.85, 30.15 57, 28.5 57 C26.85 57, 25.18 56.85, 23.55 56.57 C21.93 56.28, 20.3 55.85, 18.75 55.28 C17.2 54.72, 15.68 54.01, 14.25 53.18 C12.82 52.36, 11.44 51.39, 10.18 50.33 C8.92 49.27, 7.73 48.08, 6.67 46.82 C5.61 45.56, 4.64 44.18, 3.82 42.75 C2.99 41.32, 2.28 39.8, 1.72 38.25 C1.15 36.7, 0.72 35.07, 0.43 33.45 C0.15 31.82, 0 30.15, 0 28.5 C0 26.85, 0.15 25.18, 0.43 23.55 C0.72 21.93, 1.15 20.3, 1.72 18.75 C2.28 17.2, 2.99 15.68, 3.82 14.25 C4.64 12.82, 5.61 11.44, 6.67 10.18 C7.73 8.92, 8.92 7.73, 10.18 6.67 C11.44 5.61, 12.82 4.64, 14.25 3.82 C15.68 2.99, 17.2 2.28, 18.75 1.72 C20.3 1.15, 21.93 0.72, 23.55 0.43 C25.18 0.15, 26.85 0, 28.5 0 C30.15 0, 31.82 0.15, 33.45 0.43 C35.07 0.72, 36.7 1.15, 38.25 1.72 C39.8 2.28, 41.32 2.99, 42.75 3.82 C44.18 4.64, 45.56 5.61, 46.82 6.67 C48.08 7.73, 49.27 8.92, 50.33 10.18 C51.39 11.44, 52.36 12.82, 53.18 14.25 C54.01 15.68, 54.72 17.2, 55.28 18.75 C55.85 20.3, 56.28 21.93, 56.57 23.55 C56.85 25.18, 56.93 27.68, 57 28.5 C57.07 29.32, 57.07 27.68, 57 28.5" stroke="#1e1e1e" stroke-width="2" fill="none"></path></g><g transform="translate(33.6599567361834 170.79726053798018) rotate(0 4.6875 9.599999999999994)"><text x="4.6875" y="15.45" font-family="Cascadia, Segoe UI Emoji" font-size="16px" fill="#1e1e1e" text-anchor="middle" style="white-space: pre;" direction="ltr" dominant-baseline="alphabetic">9</text></g><g stroke-linecap="round" transform="translate(10 308.38313713513014) rotate(0 28.5 28.5)"><path d="M57 28.5 C57 30.15, 56.85 31.82, 56.57 33.45 C56.28 35.07, 55.85 36.7, 55.28 38.25 C54.72 39.8, 54.01 41.32, 53.18 42.75 C52.36 44.18, 51.39 45.56, 50.33 46.82 C49.27 48.08, 48.08 49.27, 46.82 50.33 C45.56 51.39, 44.18 52.36, 42.75 53.18 C41.32 54.01, 39.8 54.72, 38.25 55.28 C36.7 55.85, 35.07 56.28, 33.45 56.57 C31.82 56.85, 30.15 57, 28.5 57 C26.85 57, 25.18 56.85, 23.55 56.57 C21.93 56.28, 20.3 55.85, 18.75 55.28 C17.2 54.72, 15.68 54.01, 14.25 53.18 C12.82 52.36, 11.44 51.39, 10.18 50.33 C8.92 49.27, 7.73 48.08, 6.67 46.82 C5.61 45.56, 4.64 44.18, 3.82 42.75 C2.99 41.32, 2.28 39.8, 1.72 38.25 C1.15 36.7, 0.72 35.07, 0.43 33.45 C0.15 31.82, 0 30.15, 0 28.5 C0 26.85, 0.15 25.18, 0.43 23.55 C0.72 21.93, 1.15 20.3, 1.72 18.75 C2.28 17.2, 2.99 15.68, 3.82 14.25 C4.64 12.82, 5.61 11.44, 6.67 10.18 C7.73 8.92, 8.92 7.73, 10.18 6.67 C11.44 5.61, 12.82 4.64, 14.25 3.82 C15.68 2.99, 17.2 2.28, 18.75 1.72 C20.3 1.15, 21.93 0.72, 23.55 0.43 C25.18 0.15, 26.85 0, 28.5 0 C30.15 0, 31.82 0.15, 33.45 0.43 C35.07 0.72, 36.7 1.15, 38.25 1.72 C39.8 2.28, 41.32 2.99, 42.75 3.82 C44.18 4.64, 45.56 5.61, 46.82 6.67 C48.08 7.73, 49.27 8.92, 50.33 10.18 C51.39 11.44, 52.36 12.82, 53.18 14.25 C54.01 15.68, 54.72 17.2, 55.28 18.75 C55.85 20.3, 56.28 21.93, 56.57 23.55 C56.85 25.18, 56.93 27.68, 57 28.5 C57.07 29.32, 57.07 27.68, 57 28.5" stroke="#1e1e1e" stroke-width="2" fill="none"></path></g><g transform="translate(33.6599567361834 327.1305938713135) rotate(0 4.6875 9.599999999999994)"><text x="4.6875" y="15.45" font-family="Cascadia, Segoe UI Emoji" font-size="16px" fill="#1e1e1e" text-anchor="middle" style="white-space: pre;" direction="ltr" dominant-baseline="alphabetic">6</text></g><g stroke-linecap="round" transform="translate(10 439.54980380179677) rotate(0 28.5 28.5)"><path d="M57 28.5 C57 30.15, 56.85 31.82, 56.57 33.45 C56.28 35.07, 55.85 36.7, 55.28 38.25 C54.72 39.8, 54.01 41.32, 53.18 42.75 C52.36 44.18, 51.39 45.56, 50.33 46.82 C49.27 48.08, 48.08 49.27, 46.82 50.33 C45.56 51.39, 44.18 52.36, 42.75 53.18 C41.32 54.01, 39.8 54.72, 38.25 55.28 C36.7 55.85, 35.07 56.28, 33.45 56.57 C31.82 56.85, 30.15 57, 28.5 57 C26.85 57, 25.18 56.85, 23.55 56.57 C21.93 56.28, 20.3 55.85, 18.75 55.28 C17.2 54.72, 15.68 54.01, 14.25 53.18 C12.82 52.36, 11.44 51.39, 10.18 50.33 C8.92 49.27, 7.73 48.08, 6.67 46.82 C5.61 45.56, 4.64 44.18, 3.82 42.75 C2.99 41.32, 2.28 39.8, 1.72 38.25 C1.15 36.7, 0.72 35.07, 0.43 33.45 C0.15 31.82, 0 30.15, 0 28.5 C0 26.85, 0.15 25.18, 0.43 23.55 C0.72 21.93, 1.15 20.3, 1.72 18.75 C2.28 17.2, 2.99 15.68, 3.82 14.25 C4.64 12.82, 5.61 11.44, 6.67 10.18 C7.73 8.92, 8.92 7.73, 10.18 6.67 C11.44 5.61, 12.82 4.64, 14.25 3.82 C15.68 2.99, 17.2 2.28, 18.75 1.72 C20.3 1.15, 21.93 0.72, 23.55 0.43 C25.18 0.15, 26.85 0, 28.5 0 C30.15 0, 31.82 0.15, 33.45 0.43 C35.07 0.72, 36.7 1.15, 38.25 1.72 C39.8 2.28, 41.32 2.99, 42.75 3.82 C44.18 4.64, 45.56 5.61, 46.82 6.67 C48.08 7.73, 49.27 8.92, 50.33 10.18 C51.39 11.44, 52.36 12.82, 53.18 14.25 C54.01 15.68, 54.72 17.2, 55.28 18.75 C55.85 20.3, 56.28 21.93, 56.57 23.55 C56.85 25.18, 56.93 27.68, 57 28.5 C57.07 29.32, 57.07 27.68, 57 28.5" stroke="#1e1e1e" stroke-width="2" fill="none"></path></g><g transform="translate(33.6599567361834 458.29726053798015) rotate(0 4.6875 9.600000000000023)"><text x="4.6875" y="15.45" font-family="Cascadia, Segoe UI Emoji" font-size="16px" fill="#1e1e1e" text-anchor="middle" style="white-space: pre;" direction="ltr" dominant-baseline="alphabetic">6</text></g><g stroke-linecap="round"><g transform="translate(39.999990363157394 69.71647094240504) rotate(0 0.0000035375832112549688 40.685746501827964)"><path d="M0 0 C0 13.56, 0 67.81, 0 81.37 M0 0 C0 13.56, 0 67.81, 0 81.37" stroke="#1e1e1e" stroke-width="2" fill="none"></path></g><g transform="translate(39.999990363157394 69.71647094240504) rotate(0 0.0000035375832112549688 40.685746501827964)"><path d="M0 81.37 L-6.34 67.78 L6.34 67.78 L0 81.37" stroke="none" stroke-width="0" fill="#1e1e1e" fill-rule="evenodd"></path><path d="M0 81.37 C-2.23 76.58, -4.47 71.79, -6.34 67.78 M0 81.37 C-1.52 78.11, -3.04 74.85, -6.34 67.78 M-6.34 67.78 C-2.33 67.78, 1.67 67.78, 6.34 67.78 M-6.34 67.78 C-2.59 67.78, 1.17 67.78, 6.34 67.78 M6.34 67.78 C4.4 71.94, 2.46 76.1, 0 81.37 M6.34 67.78 C4.84 70.99, 3.34 74.2, 0 81.37 M0 81.37 C0 81.37, 0 81.37, 0 81.37 M0 81.37 C0 81.37, 0 81.37, 0 81.37" stroke="#1e1e1e" stroke-width="2" fill="none"></path></g></g><mask></mask><g stroke-linecap="round"><g transform="translate(39.99978980924902 212.13314705502975) rotate(0 0.00007834884729618352 46.79166041947383)"><path d="M0 0 C0 15.6, 0 77.99, 0 93.58 M0 0 C0 15.6, 0 77.99, 0 93.58" stroke="#1e1e1e" stroke-width="2" fill="none"></path></g><g transform="translate(39.99978980924902 212.13314705502975) rotate(0 0.00007834884729618352 46.79166041947383)"><path d="M0 93.58 L-6.34 79.99 L6.34 79.99 L0 93.58" stroke="none" stroke-width="0" fill="#1e1e1e" fill-rule="evenodd"></path><path d="M0 93.58 C-2.19 88.88, -4.38 84.18, -6.34 79.99 M0 93.58 C-1.7 89.93, -3.41 86.28, -6.34 79.99 M-6.34 79.99 C-2.92 79.99, 0.49 79.99, 6.34 79.99 M-6.34 79.99 C-3.43 79.99, -0.51 79.99, 6.34 79.99 M6.34 79.99 C3.83 85.36, 1.33 90.73, 0 93.58 M6.34 79.99 C4.57 83.79, 2.8 87.59, 0 93.58 M0 93.58 C0 93.58, 0 93.58, 0 93.58 M0 93.58 C0 93.58, 0 93.58, 0 93.58" stroke="#1e1e1e" stroke-width="2" fill="none"></path></g></g><mask></mask><g stroke-linecap="round"><g transform="translate(38.00000842983718 366.37889968553327) rotate(0 -0.0000029504957410608768 35.58545203740354)"><path d="M0 0 C0 11.86, 0 59.31, 0 71.17 M0 0 C0 11.86, 0 59.31, 0 71.17" stroke="#1e1e1e" stroke-width="2" fill="none"></path></g><g transform="translate(38.00000842983718 366.37889968553327) rotate(0 -0.0000029504957410608768 35.58545203740354)"><path d="M0 71.17 L-6.34 57.58 L6.34 57.58 L0 71.17" stroke="none" stroke-width="0" fill="#1e1e1e" fill-rule="evenodd"></path><path d="M0 71.17 C-2.02 66.84, -4.04 62.5, -6.34 57.58 M0 71.17 C-1.93 67.02, -3.87 62.88, -6.34 57.58 M-6.34 57.58 C-3.15 57.58, 0.05 57.58, 6.34 57.58 M-6.34 57.58 C-3.44 57.58, -0.54 57.58, 6.34 57.58 M6.34 57.58 C5.04 60.37, 3.73 63.16, 0 71.17 M6.34 57.58 C4.03 62.52, 1.73 67.46, 0 71.17 M0 71.17 C0 71.17, 0 71.17, 0 71.17 M0 71.17 C0 71.17, 0 71.17, 0 71.17" stroke="#1e1e1e" stroke-width="2" fill="none"></path></g></g><mask></mask><g stroke-linecap="round" transform="translate(360.125 152.0498038017968) rotate(0 28.5 28.5)"><path d="M57 28.5 C57 30.15, 56.85 31.82, 56.57 33.45 C56.28 35.07, 55.85 36.7, 55.28 38.25 C54.72 39.8, 54.01 41.32, 53.18 42.75 C52.36 44.18, 51.39 45.56, 50.33 46.82 C49.27 48.08, 48.08 49.27, 46.82 50.33 C45.56 51.39, 44.18 52.36, 42.75 53.18 C41.32 54.01, 39.8 54.72, 38.25 55.28 C36.7 55.85, 35.07 56.28, 33.45 56.57 C31.82 56.85, 30.15 57, 28.5 57 C26.85 57, 25.18 56.85, 23.55 56.57 C21.93 56.28, 20.3 55.85, 18.75 55.28 C17.2 54.72, 15.68 54.01, 14.25 53.18 C12.82 52.36, 11.44 51.39, 10.18 50.33 C8.92 49.27, 7.73 48.08, 6.67 46.82 C5.61 45.56, 4.64 44.18, 3.82 42.75 C2.99 41.32, 2.28 39.8, 1.72 38.25 C1.15 36.7, 0.72 35.07, 0.43 33.45 C0.15 31.82, 0 30.15, 0 28.5 C0 26.85, 0.15 25.18, 0.43 23.55 C0.72 21.93, 1.15 20.3, 1.72 18.75 C2.28 17.2, 2.99 15.68, 3.82 14.25 C4.64 12.82, 5.61 11.44, 6.67 10.18 C7.73 8.92, 8.92 7.73, 10.18 6.67 C11.44 5.61, 12.82 4.64, 14.25 3.82 C15.68 2.99, 17.2 2.28, 18.75 1.72 C20.3 1.15, 21.93 0.72, 23.55 0.43 C25.18 0.15, 26.85 0, 28.5 0 C30.15 0, 31.82 0.15, 33.45 0.43 C35.07 0.72, 36.7 1.15, 38.25 1.72 C39.8 2.28, 41.32 2.99, 42.75 3.82 C44.18 4.64, 45.56 5.61, 46.82 6.67 C48.08 7.73, 49.27 8.92, 50.33 10.18 C51.39 11.44, 52.36 12.82, 53.18 14.25 C54.01 15.68, 54.72 17.2, 55.28 18.75 C55.85 20.3, 56.28 21.93, 56.57 23.55 C56.85 25.18, 56.93 27.68, 57 28.5 C57.07 29.32, 57.07 27.68, 57 28.5" stroke="#1e1e1e" stroke-width="2" fill="none"></path></g><g transform="translate(383.7849567361832 170.79726053798018) rotate(0 4.6875 9.599999999999994)"><text x="4.6875" y="15.45" font-family="Cascadia, Segoe UI Emoji" font-size="16px" fill="#1e1e1e" text-anchor="middle" style="white-space: pre;" direction="ltr" dominant-baseline="alphabetic">6</text></g><g stroke-linecap="round" transform="translate(722.3125 152.0498038017968) rotate(0 28.5 28.5)"><path d="M57 28.5 C57 30.15, 56.85 31.82, 56.57 33.45 C56.28 35.07, 55.85 36.7, 55.28 38.25 C54.72 39.8, 54.01 41.32, 53.18 42.75 C52.36 44.18, 51.39 45.56, 50.33 46.82 C49.27 48.08, 48.08 49.27, 46.82 50.33 C45.56 51.39, 44.18 52.36, 42.75 53.18 C41.32 54.01, 39.8 54.72, 38.25 55.28 C36.7 55.85, 35.07 56.28, 33.45 56.57 C31.82 56.85, 30.15 57, 28.5 57 C26.85 57, 25.18 56.85, 23.55 56.57 C21.93 56.28, 20.3 55.85, 18.75 55.28 C17.2 54.72, 15.68 54.01, 14.25 53.18 C12.82 52.36, 11.44 51.39, 10.18 50.33 C8.92 49.27, 7.73 48.08, 6.67 46.82 C5.61 45.56, 4.64 44.18, 3.82 42.75 C2.99 41.32, 2.28 39.8, 1.72 38.25 C1.15 36.7, 0.72 35.07, 0.43 33.45 C0.15 31.82, 0 30.15, 0 28.5 C0 26.85, 0.15 25.18, 0.43 23.55 C0.72 21.93, 1.15 20.3, 1.72 18.75 C2.28 17.2, 2.99 15.68, 3.82 14.25 C4.64 12.82, 5.61 11.44, 6.67 10.18 C7.73 8.92, 8.92 7.73, 10.18 6.67 C11.44 5.61, 12.82 4.64, 14.25 3.82 C15.68 2.99, 17.2 2.28, 18.75 1.72 C20.3 1.15, 21.93 0.72, 23.55 0.43 C25.18 0.15, 26.85 0, 28.5 0 C30.15 0, 31.82 0.15, 33.45 0.43 C35.07 0.72, 36.7 1.15, 38.25 1.72 C39.8 2.28, 41.32 2.99, 42.75 3.82 C44.18 4.64, 45.56 5.61, 46.82 6.67 C48.08 7.73, 49.27 8.92, 50.33 10.18 C51.39 11.44, 52.36 12.82, 53.18 14.25 C54.01 15.68, 54.72 17.2, 55.28 18.75 C55.85 20.3, 56.28 21.93, 56.57 23.55 C56.85 25.18, 56.93 27.68, 57 28.5 C57.07 29.32, 57.07 27.68, 57 28.5" stroke="#1e1e1e" stroke-width="2" fill="none"></path></g><g transform="translate(745.9724567361832 170.79726053798018) rotate(0 4.6875 9.599999999999994)"><text x="4.6875" y="15.45" font-family="Cascadia, Segoe UI Emoji" font-size="16px" fill="#1e1e1e" text-anchor="middle" style="white-space: pre;" direction="ltr" dominant-baseline="alphabetic">1</text></g><g stroke-linecap="round" transform="translate(928 152.0498038017968) rotate(0 28.5 28.5)"><path d="M57 28.5 C57 30.15, 56.85 31.82, 56.57 33.45 C56.28 35.07, 55.85 36.7, 55.28 38.25 C54.72 39.8, 54.01 41.32, 53.18 42.75 C52.36 44.18, 51.39 45.56, 50.33 46.82 C49.27 48.08, 48.08 49.27, 46.82 50.33 C45.56 51.39, 44.18 52.36, 42.75 53.18 C41.32 54.01, 39.8 54.72, 38.25 55.28 C36.7 55.85, 35.07 56.28, 33.45 56.57 C31.82 56.85, 30.15 57, 28.5 57 C26.85 57, 25.18 56.85, 23.55 56.57 C21.93 56.28, 20.3 55.85, 18.75 55.28 C17.2 54.72, 15.68 54.01, 14.25 53.18 C12.82 52.36, 11.44 51.39, 10.18 50.33 C8.92 49.27, 7.73 48.08, 6.67 46.82 C5.61 45.56, 4.64 44.18, 3.82 42.75 C2.99 41.32, 2.28 39.8, 1.72 38.25 C1.15 36.7, 0.72 35.07, 0.43 33.45 C0.15 31.82, 0 30.15, 0 28.5 C0 26.85, 0.15 25.18, 0.43 23.55 C0.72 21.93, 1.15 20.3, 1.72 18.75 C2.28 17.2, 2.99 15.68, 3.82 14.25 C4.64 12.82, 5.61 11.44, 6.67 10.18 C7.73 8.92, 8.92 7.73, 10.18 6.67 C11.44 5.61, 12.82 4.64, 14.25 3.82 C15.68 2.99, 17.2 2.28, 18.75 1.72 C20.3 1.15, 21.93 0.72, 23.55 0.43 C25.18 0.15, 26.85 0, 28.5 0 C30.15 0, 31.82 0.15, 33.45 0.43 C35.07 0.72, 36.7 1.15, 38.25 1.72 C39.8 2.28, 41.32 2.99, 42.75 3.82 C44.18 4.64, 45.56 5.61, 46.82 6.67 C48.08 7.73, 49.27 8.92, 50.33 10.18 C51.39 11.44, 52.36 12.82, 53.18 14.25 C54.01 15.68, 54.72 17.2, 55.28 18.75 C55.85 20.3, 56.28 21.93, 56.57 23.55 C56.85 25.18, 56.93 27.68, 57 28.5 C57.07 29.32, 57.07 27.68, 57 28.5" stroke="#1e1e1e" stroke-width="2" fill="none"></path></g><g transform="translate(951.6599567361832 170.79726053798018) rotate(0 4.6875 9.599999999999994)"><text x="4.6875" y="15.45" font-family="Cascadia, Segoe UI Emoji" font-size="16px" fill="#1e1e1e" text-anchor="middle" style="white-space: pre;" direction="ltr" dominant-baseline="alphabetic">6</text></g><g transform="translate(81.2119140625 458.8498038017967) rotate(0 28.125 9.600000000000023)"><text x="0" y="15.45" font-family="Cascadia, Segoe UI Emoji" font-size="16px" fill="#1e1e1e" text-anchor="start" style="white-space: pre;" direction="ltr" dominant-baseline="alphabetic">Hello_</text></g><g stroke-linecap="round"><g transform="translate(67.74988129130702 176.71647046846348) rotate(0 145.81261870869287 0)"><path d="M0 0 C48.6 0, 243.02 0, 291.63 0 M0 0 C48.6 0, 243.02 0, 291.63 0" stroke="#1e1e1e" stroke-width="2" fill="none"></path></g><g transform="translate(67.74988129130702 176.71647046846348) rotate(0 145.81261870869287 0)"><path d="M291.63 0 L278.03 6.34 L278.03 -6.34 L291.63 0" stroke="none" stroke-width="0" fill="#1e1e1e" fill-rule="evenodd"></path><path d="M291.63 0 C287.06 2.13, 282.5 4.26, 278.03 6.34 M291.63 0 C288.15 1.62, 284.67 3.24, 278.03 6.34 M278.03 6.34 C278.03 3.79, 278.03 1.25, 278.03 -6.34 M278.03 6.34 C278.03 2.23, 278.03 -1.88, 278.03 -6.34 M278.03 -6.34 C281.6 -4.68, 285.16 -3.01, 291.63 0 M278.03 -6.34 C281.78 -4.59, 285.52 -2.84, 291.63 0 M291.63 0 C291.63 0, 291.63 0, 291.63 0 M291.63 0 C291.63 0, 291.63 0, 291.63 0" stroke="#1e1e1e" stroke-width="2" fill="none"></path></g></g><mask></mask><g stroke-linecap="round"><g transform="translate(418.875 178.71647046846348) rotate(0 151.24726154868426 0)"><path d="M0 0 C50.42 0, 252.08 0, 302.49 0 M0 0 C50.42 0, 252.08 0, 302.49 0" stroke="#1e1e1e" stroke-width="2" fill="none"></path></g><g transform="translate(418.875 178.71647046846348) rotate(0 151.24726154868426 0)"><path d="M302.49 0 L288.9 6.34 L288.9 -6.34 L302.49 0" stroke="none" stroke-width="0" fill="#1e1e1e" fill-rule="evenodd"></path><path d="M302.49 0 C299.68 1.31, 296.87 2.62, 288.9 6.34 M302.49 0 C299.45 1.42, 296.41 2.84, 288.9 6.34 M288.9 6.34 C288.9 1.77, 288.9 -2.79, 288.9 -6.34 M288.9 6.34 C288.9 3.28, 288.9 0.22, 288.9 -6.34 M288.9 -6.34 C291.94 -4.92, 294.97 -3.51, 302.49 0 M288.9 -6.34 C293.61 -4.15, 298.31 -1.95, 302.49 0 M302.49 0 C302.49 0, 302.49 0, 302.49 0 M302.49 0 C302.49 0, 302.49 0, 302.49 0" stroke="#1e1e1e" stroke-width="2" fill="none"></path></g></g><mask></mask><g stroke-linecap="round"><g transform="translate(782.8125 177.71647046846348) rotate(0 70.234130859375 0)"><path d="M0 0 C23.41 0, 117.06 0, 140.47 0 M0 0 C23.41 0, 117.06 0, 140.47 0" stroke="#1e1e1e" stroke-width="2" fill="none"></path></g><g transform="translate(782.8125 177.71647046846348) rotate(0 70.234130859375 0)"><path d="M140.47 0 L126.87 6.34 L126.87 -6.34 L140.47 0" stroke="none" stroke-width="0" fill="#1e1e1e" fill-rule="evenodd"></path><path d="M140.47 0 C135.9 2.13, 131.34 4.26, 126.87 6.34 M140.47 0 C135.27 2.42, 130.08 4.85, 126.87 6.34 M126.87 6.34 C126.87 1.4, 126.87 -3.55, 126.87 -6.34 M126.87 6.34 C126.87 3.42, 126.87 0.5, 126.87 -6.34 M126.87 -6.34 C132.03 -3.93, 137.19 -1.53, 140.47 0 M126.87 -6.34 C132.28 -3.82, 137.68 -1.3, 140.47 0 M140.47 0 C140.47 0, 140.47 0, 140.47 0 M140.47 0 C140.47 0, 140.47 0, 140.47 0" stroke="#1e1e1e" stroke-width="2" fill="none"></path></g></g><mask></mask><g stroke-linecap="round" transform="translate(137 308.38313713513014) rotate(0 28.5 28.5)"><path d="M57 28.5 C57 30.15, 56.85 31.82, 56.57 33.45 C56.28 35.07, 55.85 36.7, 55.28 38.25 C54.72 39.8, 54.01 41.32, 53.18 42.75 C52.36 44.18, 51.39 45.56, 50.33 46.82 C49.27 48.08, 48.08 49.27, 46.82 50.33 C45.56 51.39, 44.18 52.36, 42.75 53.18 C41.32 54.01, 39.8 54.72, 38.25 55.28 C36.7 55.85, 35.07 56.28, 33.45 56.57 C31.82 56.85, 30.15 57, 28.5 57 C26.85 57, 25.18 56.85, 23.55 56.57 C21.93 56.28, 20.3 55.85, 18.75 55.28 C17.2 54.72, 15.68 54.01, 14.25 53.18 C12.82 52.36, 11.44 51.39, 10.18 50.33 C8.92 49.27, 7.73 48.08, 6.67 46.82 C5.61 45.56, 4.64 44.18, 3.82 42.75 C2.99 41.32, 2.28 39.8, 1.72 38.25 C1.15 36.7, 0.72 35.07, 0.43 33.45 C0.15 31.82, 0 30.15, 0 28.5 C0 26.85, 0.15 25.18, 0.43 23.55 C0.72 21.93, 1.15 20.3, 1.72 18.75 C2.28 17.2, 2.99 15.68, 3.82 14.25 C4.64 12.82, 5.61 11.44, 6.67 10.18 C7.73 8.92, 8.92 7.73, 10.18 6.67 C11.44 5.61, 12.82 4.64, 14.25 3.82 C15.68 2.99, 17.2 2.28, 18.75 1.72 C20.3 1.15, 21.93 0.72, 23.55 0.43 C25.18 0.15, 26.85 0, 28.5 0 C30.15 0, 31.82 0.15, 33.45 0.43 C35.07 0.72, 36.7 1.15, 38.25 1.72 C39.8 2.28, 41.32 2.99, 42.75 3.82 C44.18 4.64, 45.56 5.61, 46.82 6.67 C48.08 7.73, 49.27 8.92, 50.33 10.18 C51.39 11.44, 52.36 12.82, 53.18 14.25 C54.01 15.68, 54.72 17.2, 55.28 18.75 C55.85 20.3, 56.28 21.93, 56.57 23.55 C56.85 25.18, 56.93 27.68, 57 28.5 C57.07 29.32, 57.07 27.68, 57 28.5" stroke="#1e1e1e" stroke-width="2" fill="none"></path></g><g transform="translate(160.65995673618318 327.1305938713135) rotate(0 4.6875 9.599999999999994)"><text x="4.6875" y="15.45" font-family="Cascadia, Segoe UI Emoji" font-size="16px" fill="#1e1e1e" text-anchor="middle" style="white-space: pre;" direction="ltr" dominant-baseline="alphabetic">3</text></g><g transform="translate(205.2119140625 327.01647046846347) rotate(0 14.0625 9.599999999999994)"><text x="0" y="15.45" font-family="Cascadia, Segoe UI Emoji" font-size="16px" fill="#1e1e1e" text-anchor="start" style="white-space: pre;" direction="ltr" dominant-baseline="alphabetic">my_</text></g><g stroke-linecap="round"><g transform="translate(69 333.7164704684635) rotate(0 33.58522739502723 0)"><path d="M0 0 C11.2 0, 55.98 0, 67.17 0 M0 0 C11.2 0, 55.98 0, 67.17 0" stroke="#1e1e1e" stroke-width="2" fill="none"></path></g><g transform="translate(69 333.7164704684635) rotate(0 33.58522739502723 0)"><path d="M67.17 0 L53.58 6.34 L53.58 -6.34 L67.17 0" stroke="none" stroke-width="0" fill="#1e1e1e" fill-rule="evenodd"></path><path d="M67.17 0 C62.42 2.22, 57.66 4.43, 53.58 6.34 M67.17 0 C62.31 2.27, 57.44 4.54, 53.58 6.34 M53.58 6.34 C53.58 3.1, 53.58 -0.13, 53.58 -6.34 M53.58 6.34 C53.58 2.59, 53.58 -1.15, 53.58 -6.34 M53.58 -6.34 C56.99 -4.75, 60.41 -3.15, 67.17 0 M53.58 -6.34 C57.65 -4.44, 61.72 -2.54, 67.17 0 M67.17 0 C67.17 0, 67.17 0, 67.17 0 M67.17 0 C67.17 0, 67.17 0, 67.17 0" stroke="#1e1e1e" stroke-width="2" fill="none"></path></g></g><mask></mask><g stroke-linecap="round" transform="translate(360.125 313.38313713513014) rotate(0 28.5 28.5)"><path d="M57 28.5 C57 30.15, 56.85 31.82, 56.57 33.45 C56.28 35.07, 55.85 36.7, 55.28 38.25 C54.72 39.8, 54.01 41.32, 53.18 42.75 C52.36 44.18, 51.39 45.56, 50.33 46.82 C49.27 48.08, 48.08 49.27, 46.82 50.33 C45.56 51.39, 44.18 52.36, 42.75 53.18 C41.32 54.01, 39.8 54.72, 38.25 55.28 C36.7 55.85, 35.07 56.28, 33.45 56.57 C31.82 56.85, 30.15 57, 28.5 57 C26.85 57, 25.18 56.85, 23.55 56.57 C21.93 56.28, 20.3 55.85, 18.75 55.28 C17.2 54.72, 15.68 54.01, 14.25 53.18 C12.82 52.36, 11.44 51.39, 10.18 50.33 C8.92 49.27, 7.73 48.08, 6.67 46.82 C5.61 45.56, 4.64 44.18, 3.82 42.75 C2.99 41.32, 2.28 39.8, 1.72 38.25 C1.15 36.7, 0.72 35.07, 0.43 33.45 C0.15 31.82, 0 30.15, 0 28.5 C0 26.85, 0.15 25.18, 0.43 23.55 C0.72 21.93, 1.15 20.3, 1.72 18.75 C2.28 17.2, 2.99 15.68, 3.82 14.25 C4.64 12.82, 5.61 11.44, 6.67 10.18 C7.73 8.92, 8.92 7.73, 10.18 6.67 C11.44 5.61, 12.82 4.64, 14.25 3.82 C15.68 2.99, 17.2 2.28, 18.75 1.72 C20.3 1.15, 21.93 0.72, 23.55 0.43 C25.18 0.15, 26.85 0, 28.5 0 C30.15 0, 31.82 0.15, 33.45 0.43 C35.07 0.72, 36.7 1.15, 38.25 1.72 C39.8 2.28, 41.32 2.99, 42.75 3.82 C44.18 4.64, 45.56 5.61, 46.82 6.67 C48.08 7.73, 49.27 8.92, 50.33 10.18 C51.39 11.44, 52.36 12.82, 53.18 14.25 C54.01 15.68, 54.72 17.2, 55.28 18.75 C55.85 20.3, 56.28 21.93, 56.57 23.55 C56.85 25.18, 56.93 27.68, 57 28.5 C57.07 29.32, 57.07 27.68, 57 28.5" stroke="#1e1e1e" stroke-width="2" fill="none"></path></g><g transform="translate(383.7849567361832 332.1305938713135) rotate(0 4.6875 9.599999999999994)"><text x="4.6875" y="15.45" font-family="Cascadia, Segoe UI Emoji" font-size="16px" fill="#1e1e1e" text-anchor="middle" style="white-space: pre;" direction="ltr" dominant-baseline="alphabetic">2</text></g><g stroke-linecap="round" transform="translate(360.125 444.54980380179677) rotate(0 28.5 28.5)"><path d="M57 28.5 C57 30.15, 56.85 31.82, 56.57 33.45 C56.28 35.07, 55.85 36.7, 55.28 38.25 C54.72 39.8, 54.01 41.32, 53.18 42.75 C52.36 44.18, 51.39 45.56, 50.33 46.82 C49.27 48.08, 48.08 49.27, 46.82 50.33 C45.56 51.39, 44.18 52.36, 42.75 53.18 C41.32 54.01, 39.8 54.72, 38.25 55.28 C36.7 55.85, 35.07 56.28, 33.45 56.57 C31.82 56.85, 30.15 57, 28.5 57 C26.85 57, 25.18 56.85, 23.55 56.57 C21.93 56.28, 20.3 55.85, 18.75 55.28 C17.2 54.72, 15.68 54.01, 14.25 53.18 C12.82 52.36, 11.44 51.39, 10.18 50.33 C8.92 49.27, 7.73 48.08, 6.67 46.82 C5.61 45.56, 4.64 44.18, 3.82 42.75 C2.99 41.32, 2.28 39.8, 1.72 38.25 C1.15 36.7, 0.72 35.07, 0.43 33.45 C0.15 31.82, 0 30.15, 0 28.5 C0 26.85, 0.15 25.18, 0.43 23.55 C0.72 21.93, 1.15 20.3, 1.72 18.75 C2.28 17.2, 2.99 15.68, 3.82 14.25 C4.64 12.82, 5.61 11.44, 6.67 10.18 C7.73 8.92, 8.92 7.73, 10.18 6.67 C11.44 5.61, 12.82 4.64, 14.25 3.82 C15.68 2.99, 17.2 2.28, 18.75 1.72 C20.3 1.15, 21.93 0.72, 23.55 0.43 C25.18 0.15, 26.85 0, 28.5 0 C30.15 0, 31.82 0.15, 33.45 0.43 C35.07 0.72, 36.7 1.15, 38.25 1.72 C39.8 2.28, 41.32 2.99, 42.75 3.82 C44.18 4.64, 45.56 5.61, 46.82 6.67 C48.08 7.73, 49.27 8.92, 50.33 10.18 C51.39 11.44, 52.36 12.82, 53.18 14.25 C54.01 15.68, 54.72 17.2, 55.28 18.75 C55.85 20.3, 56.28 21.93, 56.57 23.55 C56.85 25.18, 56.93 27.68, 57 28.5 C57.07 29.32, 57.07 27.68, 57 28.5" stroke="#1e1e1e" stroke-width="2" fill="none"></path></g><g transform="translate(383.7849567361832 463.29726053798015) rotate(0 4.6875 9.600000000000023)"><text x="4.6875" y="15.45" font-family="Cascadia, Segoe UI Emoji" font-size="16px" fill="#1e1e1e" text-anchor="middle" style="white-space: pre;" direction="ltr" dominant-baseline="alphabetic">2</text></g><g stroke-linecap="round" transform="translate(489.125 313.38313713513014) rotate(0 28.5 28.5)"><path d="M57 28.5 C57 30.15, 56.85 31.82, 56.57 33.45 C56.28 35.07, 55.85 36.7, 55.28 38.25 C54.72 39.8, 54.01 41.32, 53.18 42.75 C52.36 44.18, 51.39 45.56, 50.33 46.82 C49.27 48.08, 48.08 49.27, 46.82 50.33 C45.56 51.39, 44.18 52.36, 42.75 53.18 C41.32 54.01, 39.8 54.72, 38.25 55.28 C36.7 55.85, 35.07 56.28, 33.45 56.57 C31.82 56.85, 30.15 57, 28.5 57 C26.85 57, 25.18 56.85, 23.55 56.57 C21.93 56.28, 20.3 55.85, 18.75 55.28 C17.2 54.72, 15.68 54.01, 14.25 53.18 C12.82 52.36, 11.44 51.39, 10.18 50.33 C8.92 49.27, 7.73 48.08, 6.67 46.82 C5.61 45.56, 4.64 44.18, 3.82 42.75 C2.99 41.32, 2.28 39.8, 1.72 38.25 C1.15 36.7, 0.72 35.07, 0.43 33.45 C0.15 31.82, 0 30.15, 0 28.5 C0 26.85, 0.15 25.18, 0.43 23.55 C0.72 21.93, 1.15 20.3, 1.72 18.75 C2.28 17.2, 2.99 15.68, 3.82 14.25 C4.64 12.82, 5.61 11.44, 6.67 10.18 C7.73 8.92, 8.92 7.73, 10.18 6.67 C11.44 5.61, 12.82 4.64, 14.25 3.82 C15.68 2.99, 17.2 2.28, 18.75 1.72 C20.3 1.15, 21.93 0.72, 23.55 0.43 C25.18 0.15, 26.85 0, 28.5 0 C30.15 0, 31.82 0.15, 33.45 0.43 C35.07 0.72, 36.7 1.15, 38.25 1.72 C39.8 2.28, 41.32 2.99, 42.75 3.82 C44.18 4.64, 45.56 5.61, 46.82 6.67 C48.08 7.73, 49.27 8.92, 50.33 10.18 C51.39 11.44, 52.36 12.82, 53.18 14.25 C54.01 15.68, 54.72 17.2, 55.28 18.75 C55.85 20.3, 56.28 21.93, 56.57 23.55 C56.85 25.18, 56.93 27.68, 57 28.5 C57.07 29.32, 57.07 27.68, 57 28.5" stroke="#1e1e1e" stroke-width="2" fill="none"></path></g><g transform="translate(512.7849567361832 332.1305938713135) rotate(0 4.6875 9.599999999999994)"><text x="4.6875" y="15.45" font-family="Cascadia, Segoe UI Emoji" font-size="16px" fill="#1e1e1e" text-anchor="middle" style="white-space: pre;" direction="ltr" dominant-baseline="alphabetic">4</text></g><g transform="translate(430.2119140625 463.8498038017967) rotate(0 9.375 9.600000000000023)"><text x="0" y="15.45" font-family="Cascadia, Segoe UI Emoji" font-size="16px" fill="#1e1e1e" text-anchor="start" style="white-space: pre;" direction="ltr" dominant-baseline="alphabetic">na</text></g><g transform="translate(563.2119140625 332.01647046846347) rotate(0 18.75 9.599999999999994)"><text x="0" y="15.45" font-family="Cascadia, Segoe UI Emoji" font-size="16px" fill="#1e1e1e" text-anchor="start" style="white-space: pre;" direction="ltr" dominant-baseline="alphabetic">me_i</text></g><g stroke-linecap="round" transform="translate(722.3125 308.38313713513014) rotate(0 28.5 28.5)"><path d="M57 28.5 C57 30.15, 56.85 31.82, 56.57 33.45 C56.28 35.07, 55.85 36.7, 55.28 38.25 C54.72 39.8, 54.01 41.32, 53.18 42.75 C52.36 44.18, 51.39 45.56, 50.33 46.82 C49.27 48.08, 48.08 49.27, 46.82 50.33 C45.56 51.39, 44.18 52.36, 42.75 53.18 C41.32 54.01, 39.8 54.72, 38.25 55.28 C36.7 55.85, 35.07 56.28, 33.45 56.57 C31.82 56.85, 30.15 57, 28.5 57 C26.85 57, 25.18 56.85, 23.55 56.57 C21.93 56.28, 20.3 55.85, 18.75 55.28 C17.2 54.72, 15.68 54.01, 14.25 53.18 C12.82 52.36, 11.44 51.39, 10.18 50.33 C8.92 49.27, 7.73 48.08, 6.67 46.82 C5.61 45.56, 4.64 44.18, 3.82 42.75 C2.99 41.32, 2.28 39.8, 1.72 38.25 C1.15 36.7, 0.72 35.07, 0.43 33.45 C0.15 31.82, 0 30.15, 0 28.5 C0 26.85, 0.15 25.18, 0.43 23.55 C0.72 21.93, 1.15 20.3, 1.72 18.75 C2.28 17.2, 2.99 15.68, 3.82 14.25 C4.64 12.82, 5.61 11.44, 6.67 10.18 C7.73 8.92, 8.92 7.73, 10.18 6.67 C11.44 5.61, 12.82 4.64, 14.25 3.82 C15.68 2.99, 17.2 2.28, 18.75 1.72 C20.3 1.15, 21.93 0.72, 23.55 0.43 C25.18 0.15, 26.85 0, 28.5 0 C30.15 0, 31.82 0.15, 33.45 0.43 C35.07 0.72, 36.7 1.15, 38.25 1.72 C39.8 2.28, 41.32 2.99, 42.75 3.82 C44.18 4.64, 45.56 5.61, 46.82 6.67 C48.08 7.73, 49.27 8.92, 50.33 10.18 C51.39 11.44, 52.36 12.82, 53.18 14.25 C54.01 15.68, 54.72 17.2, 55.28 18.75 C55.85 20.3, 56.28 21.93, 56.57 23.55 C56.85 25.18, 56.93 27.68, 57 28.5 C57.07 29.32, 57.07 27.68, 57 28.5" stroke="#1e1e1e" stroke-width="2" fill="none"></path></g><g transform="translate(745.9724567361832 327.1305938713135) rotate(0 4.6875 9.599999999999994)"><text x="4.6875" y="15.45" font-family="Cascadia, Segoe UI Emoji" font-size="16px" fill="#1e1e1e" text-anchor="middle" style="white-space: pre;" direction="ltr" dominant-baseline="alphabetic">1</text></g><g transform="translate(798.2119140625 327.01647046846347) rotate(0 4.6875 9.599999999999994)"><text x="0" y="15.45" font-family="Cascadia, Segoe UI Emoji" font-size="16px" fill="#1e1e1e" text-anchor="start" style="white-space: pre;" direction="ltr" dominant-baseline="alphabetic">s</text></g><g transform="translate(999.2119140625 170.0164704684635) rotate(0 28.125 9.599999999999994)"><text x="0" y="15.45" font-family="Cascadia, Segoe UI Emoji" font-size="16px" fill="#1e1e1e" text-anchor="start" style="white-space: pre;" direction="ltr" dominant-baseline="alphabetic">_simon</text></g><g stroke-linecap="round"><g transform="translate(388.99999979427776 210.0474202335408) rotate(0 7.426524462061934e-8 51.16905023586679)"><path d="M0 0 C0 17.06, 0 85.28, 0 102.34 M0 0 C0 17.06, 0 85.28, 0 102.34" stroke="#1e1e1e" stroke-width="2" fill="none"></path></g><g transform="translate(388.99999979427776 210.0474202335408) rotate(0 7.426524462061934e-8 51.16905023586679)"><path d="M0 102.34 L-6.34 88.74 L6.34 88.74 L0 102.34" stroke="none" stroke-width="0" fill="#1e1e1e" fill-rule="evenodd"></path><path d="M0 102.34 C-2.47 97.04, -4.94 91.74, -6.34 88.74 M0 102.34 C-1.47 99.19, -2.93 96.04, -6.34 88.74 M-6.34 88.74 C-1.83 88.74, 2.67 88.74, 6.34 88.74 M-6.34 88.74 C-3.38 88.74, -0.41 88.74, 6.34 88.74 M6.34 88.74 C4.04 93.66, 1.75 98.58, 0 102.34 M6.34 88.74 C3.88 94.01, 1.43 99.28, 0 102.34 M0 102.34 C0 102.34, 0 102.34, 0 102.34 M0 102.34 C0 102.34, 0 102.34, 0 102.34" stroke="#1e1e1e" stroke-width="2" fill="none"></path></g></g><mask></mask><g stroke-linecap="round"><g transform="translate(388.00000001083663 371.71647046869055) rotate(0 -3.841250872937962e-9 35.91997741943783)"><path d="M0 0 C0 11.97, 0 59.87, 0 71.84 M0 0 C0 11.97, 0 59.87, 0 71.84" stroke="#1e1e1e" stroke-width="2" fill="none"></path></g><g transform="translate(388.00000001083663 371.71647046869055) rotate(0 -3.841250872937962e-9 35.91997741943783)"><path d="M0 71.84 L-6.34 58.25 L6.34 58.25 L0 71.84" stroke="none" stroke-width="0" fill="#1e1e1e" fill-rule="evenodd"></path><path d="M0 71.84 C-1.47 68.68, -2.94 65.53, -6.34 58.25 M0 71.84 C-1.35 68.95, -2.7 66.05, -6.34 58.25 M-6.34 58.25 C-1.59 58.25, 3.15 58.25, 6.34 58.25 M-6.34 58.25 C-1.5 58.25, 3.33 58.25, 6.34 58.25 M6.34 58.25 C3.83 63.62, 1.33 68.99, 0 71.84 M6.34 58.25 C4.91 61.31, 3.49 64.37, 0 71.84 M0 71.84 C0 71.84, 0 71.84, 0 71.84 M0 71.84 C0 71.84, 0 71.84, 0 71.84" stroke="#1e1e1e" stroke-width="2" fill="none"></path></g></g><mask></mask><g stroke-linecap="round"><g transform="translate(750.999999999995 210.0492079271347) rotate(0 2.0463630789890885e-12 48.3336312706644)"><path d="M0 0 C0 16.11, 0 80.56, 0 96.67 M0 0 C0 16.11, 0 80.56, 0 96.67" stroke="#1e1e1e" stroke-width="2" fill="none"></path></g><g transform="translate(750.999999999995 210.0492079271347) rotate(0 2.0463630789890885e-12 48.3336312706644)"><path d="M0 96.67 L-6.34 83.07 L6.34 83.07 L0 96.67" stroke="none" stroke-width="0" fill="#1e1e1e" fill-rule="evenodd"></path><path d="M0 96.67 C-1.56 93.32, -3.12 89.97, -6.34 83.07 M0 96.67 C-2.18 92, -4.36 87.32, -6.34 83.07 M-6.34 83.07 C-3.59 83.07, -0.84 83.07, 6.34 83.07 M-6.34 83.07 C-2.85 83.07, 0.65 83.07, 6.34 83.07 M6.34 83.07 C3.86 88.38, 1.39 93.69, 0 96.67 M6.34 83.07 C4.95 86.05, 3.56 89.02, 0 96.67 M0 96.67 C0 96.67, 0 96.67, 0 96.67 M0 96.67 C0 96.67, 0 96.67, 0 96.67" stroke="#1e1e1e" stroke-width="2" fill="none"></path></g></g><mask></mask><g stroke-linecap="round"><g transform="translate(420.10192129257894 339.7164704684635) rotate(0 32.94903935371053 0)"><path d="M0 0 C10.98 0, 54.92 0, 65.9 0 M0 0 C10.98 0, 54.92 0, 65.9 0" stroke="#1e1e1e" stroke-width="2" fill="none"></path></g><g transform="translate(420.10192129257894 339.7164704684635) rotate(0 32.94903935371053 0)"><path d="M65.9 0 L52.3 6.34 L52.3 -6.34 L65.9 0" stroke="none" stroke-width="0" fill="#1e1e1e" fill-rule="evenodd"></path><path d="M65.9 0 C60.93 2.32, 55.96 4.63, 52.3 6.34 M65.9 0 C62.44 1.61, 58.99 3.22, 52.3 6.34 M52.3 6.34 C52.3 3.53, 52.3 0.73, 52.3 -6.34 M52.3 6.34 C52.3 1.49, 52.3 -3.37, 52.3 -6.34 M52.3 -6.34 C55.87 -4.68, 59.43 -3.02, 65.9 0 M52.3 -6.34 C55.25 -4.96, 58.2 -3.59, 65.9 0 M65.9 0 C65.9 0, 65.9 0, 65.9 0 M65.9 0 C65.9 0, 65.9 0, 65.9 0" stroke="#1e1e1e" stroke-width="2" fill="none"></path></g></g><mask></mask><g transform="translate(155.28076171875 10) rotate(0 431.1319580078125 32.76656856756502)"><text x="0" y="52.42762270296025" font-family="Helvetica, Segoe UI Emoji" font-size="56.9853366392435px" fill="#1e1e1e" text-anchor="start" style="white-space: pre;" direction="ltr" dominant-baseline="alphabetic">Rope Data Structure - Binary Tree</text></g></svg>